[mp3 @ 0x5da401ad2880] Estimating duration from bitrate, this may be inaccurate
Input #0, mp3, from 'reports/roundtable-user-qa-2026-06-08-latest/audio/09-200.mp3':
  Duration: 00:00:07.81, start: 0.000000, bitrate: 128 kb/s
  Stream #0:0: Audio: mp3, 44100 Hz, mono, fltp, 128 kb/s
Stream mapping:
  Stream #0:0 -> #0:0 (mp3 (mp3float) -> pcm_s16le (native))
Press [q] to stop, [?] for help
Output #0, null, to 'pipe:':
  Metadata:
    encoder         : Lavf59.27.100
  Stream #0:0: Audio: pcm_s16le, 44100 Hz, mono, s16, 705 kb/s
    Metadata:
      encoder         : Lavc59.37.100 pcm_s16le
size=N/A time=00:00:07.81 bitrate=N/A speed=75.1x    
video:0kB audio:673kB subtitle:0kB other streams:0kB global headers:0kB muxing overhead: unknown
[Parsed_volumedetect_0 @ 0x5da401ae6c00] n_samples: 344448
[Parsed_volumedetect_0 @ 0x5da401ae6c00] mean_volume: -23.1 dB
[Parsed_volumedetect_0 @ 0x5da401ae6c00] max_volume: -7.9 dB
[Parsed_volumedetect_0 @ 0x5da401ae6c00] histogram_7db: 3
[Parsed_volumedetect_0 @ 0x5da401ae6c00] histogram_8db: 39
[Parsed_volumedetect_0 @ 0x5da401ae6c00] histogram_9db: 258
[Parsed_volumedetect_0 @ 0x5da401ae6c00] histogram_10db: 653
